<svg xmlns="http://www.w3.org/2000/svg" viewBox="0 0 150 150" width="150" height="150">
  <circle cx="75" cy="75" r="65" fill="#EBF5FB" />
  <!-- Cloud -->
  <path d="M 50,85 C 40,85 35,75 42,65 C 38,50 50,42 62,48 C 68,38 82,38 88,48 C 100,42 112,50 108,65 C 115,75 110,85 100,85 Z" fill="#FFFFFF" stroke="#AEC6CF" stroke-width="3" stroke-linejoin="round" />
  <!-- Eyes -->
  <path d="M 62,60 Q 65,58 68,60" fill="none" stroke="#2C3E50" stroke-width="2.5" stroke-linecap="round" />
  <path d="M 82,60 Q 85,58 88,60" fill="none" stroke="#2C3E50" stroke-width="2.5" stroke-linecap="round" />
  <!-- Mouth (coughing shape - circle) -->
  <circle cx="75" cy="72" r="6" fill="#E74C3C" />
  <!-- Cough puffs (hearts/puffs) -->
  <path d="M 75,90 Q 75,105 65,115" fill="none" stroke="#BDC3C7" stroke-width="3" stroke-dasharray="4 4" stroke-linecap="round" />
  <path d="M 85,92 C 87,90 90,90 91,92 C 92,94 92,96 89,99 L 85,102 L 81,99 C 78,96 78,94 79,92 C 80,90 83,90 85,92 Z" fill="#FF7675" />
  <path d="M 65,98 C 67,96 70,96 71,98 C 72,100 72,102 69,105 L 65,108 L 61,105 C 58,102 58,100 59,98 C 60,96 63,96 65,98 Z" fill="#FF7675" transform="scale(0.8) translate(15, 20)" />
</svg>
