<svg xmlns="http://www.w3.org/2000/svg" viewBox="0 0 150 150" width="150" height="150">
  <circle cx="75" cy="75" r="65" fill="#EBF5FB" />
  <!-- Ear -->
  <path d="M 50,65 C 50,45 80,35 95,50 C 110,65 105,95 90,105 C 80,112 65,110 65,100 C 65,95 72,92 75,90 C 82,85 85,75 80,68 C 75,60 62,65 62,75" fill="#FAD7A0" stroke="#E67E22" stroke-width="3" stroke-linecap="round" stroke-linejoin="round" />
  <!-- Inner ear line -->
  <path d="M 78,55 C 83,58 88,68 85,75 C 82,80 75,80 72,78" fill="none" stroke="#E67E22" stroke-width="2" stroke-linecap="round" />
  <!-- Little heart indicating care/ache -->
  <path d="M 105,45 C 103,42 100,42 98,44 C 96,46 96,49 99,52 L 105,57 L 111,52 C 114,49 114,46 112,44 C 110,42 107,42 105,45 Z" fill="#EC7063" />
  <!-- Band-aid on ear lobe -->
  <rect x="75" y="90" width="16" height="6" rx="1.5" fill="#F5CBA7" stroke="#DC7633" stroke-width="1" transform="rotate(30, 83, 93)" />
</svg>
