<svg xmlns="http://www.w3.org/2000/svg" viewBox="0 0 150 150" width="150" height="150">
  <circle cx="75" cy="75" r="65" fill="#FEF9E7" />
  <g stroke="#D35400">
    <path d="M 75,105 C 55,105 45,95 45,70 C 45,45 58,40 75,40 C 92,40 105,45 105,70 C 105,95 95,105 75,105 Z M 75,40 L 75,28 Q 80,23 85,28 M 70,20 Q 75,28 80,20" fill="none" stroke-width="5" stroke-linejoin="round" />
  </g>
  
      <!-- Normal Happy Face -->
      <path d="M 62,65 Q 65,61 68,65 M 82,65 Q 85,61 88,65" fill="none" stroke="#2C3E50" stroke-width="2.5" stroke-linecap="round" />
      <path d="M 70,78 Q 75,82 80,78" fill="none" stroke="#2C3E50" stroke-width="2" stroke-linecap="round" />
    
  <!-- Herniated pelvic sac --><path d="M 65,115 Q 75,128 85,115" fill="#F0B27A" stroke="#D35400" stroke-width="2.5" />
</svg>
