<svg xmlns="http://www.w3.org/2000/svg" viewBox="0 0 150 150" width="150" height="150">
  <circle cx="75" cy="75" r="65" fill="#FFEBEE" />
  <g stroke="#C62828">
    <path d="M 75,75 A 25,25 0 1,1 75,74.9 M 50,75 L 40,75 M 100,75 L 110,75 M 75,50 L 75,40 M 75,100 L 75,110 M 57,57 L 49,49 M 93,93 L 101,101 M 93,57 L 101,49 M 57,93 L 49,101" fill="none" stroke-width="5" stroke-linecap="round" />
  </g>
  
      <!-- Normal Happy Face -->
      <path d="M 62,65 Q 65,61 68,65 M 82,65 Q 85,61 88,65" fill="none" stroke="#2C3E50" stroke-width="2.5" stroke-linecap="round" />
      <path d="M 70,78 Q 75,82 80,78" fill="none" stroke="#2C3E50" stroke-width="2" stroke-linecap="round" />
    
  <!-- Fine skin rash specks --><circle cx="75" cy="90" r="1.5" fill="#C0392B" /><circle cx="65" cy="95" r="1.5" fill="#C0392B" /><circle cx="85" cy="95" r="1.5" fill="#C0392B" /><circle cx="75" cy="78" r="3" fill="#E74C3C" />
</svg>
