<svg xmlns="http://www.w3.org/2000/svg" viewBox="0 0 150 150" width="150" height="150">
  <circle cx="75" cy="75" r="65" fill="#E8F8F5" />
  <!-- Smiling Bone with band-aid -->
  <path d="M 45,55 C 38,55 38,70 45,70 L 105,70 C 112,70 112,55 105,55 C 105,45 120,45 120,60 C 120,75 105,75 105,75 L 45,75 C 45,75 30,75 30,60 C 30,45 45,45 45,55 Z" fill="#FFFFFF" stroke="#BDC3C7" stroke-width="2.5" stroke-linejoin="round" transform="rotate(-30, 75, 75)" />
  <!-- Band-aid on bone -->
  <rect x="68" y="70" width="14" height="6" rx="1.5" fill="#F5CBA7" stroke="#DC7633" stroke-width="1" />
  <!-- Eyes and Smile -->
  <circle cx="68" cy="62" r="1.5" fill="#2C3E50" />
  <circle cx="82" cy="62" r="1.5" fill="#2C3E50" />
  <path d="M 73,66 Q 75,68 77,66" fill="none" stroke="#2C3E50" stroke-width="1.2" stroke-linecap="round" />
</svg>
