<svg xmlns="http://www.w3.org/2000/svg" viewBox="0 0 150 150" width="150" height="150">
  <circle cx="75" cy="75" r="65" fill="#E8F8F5" />
  <g stroke="#16A085">
    <path d="M 45,55 C 38,48 28,48 28,58 C 28,68 38,68 45,60 L 105,60 C 112,68 122,68 122,58 C 122,48 112,48 105,55 L 105,95 C 112,88 122,88 122,98 C 122,108 112,108 105,101 L 45,101 C 38,108 28,108 28,98 C 28,88 38,88 45,95 Z" fill="none" stroke-width="5" stroke-linecap="round" stroke-linejoin="round" />
  </g>
  
          <!-- Sad/Sick Face -->
          <path d="M 62,65 Q 65,69 68,65 M 82,65 Q 85,69 88,65" fill="none" stroke="#2C3E50" stroke-width="2.5" stroke-linecap="round" />
          <path d="M 71,80 Q 75,76 79,80" fill="none" stroke="#2C3E50" stroke-width="2.5" stroke-linecap="round" />
        
  
</svg>
