<svg xmlns="http://www.w3.org/2000/svg" viewBox="0 0 150 150" width="150" height="150">
  <circle cx="75" cy="75" r="65" fill="#FDEDEC" />
  <!-- Glow behind heart -->
  <path d="M 75,115 C 70,110 30,75 30,55 C 30,38 45,28 60,35 C 68,39 72,48 75,52 C 78,48 82,39 90,35 C 105,28 120,38 120,55 C 120,75 80,110 75,115 Z" fill="#FADBD8" opacity="0.6" />
  <!-- Heart shape -->
  <path d="M 75,110 C 70,105 35,72 35,53 C 35,38 48,29 61,35 C 68,38 72,46 75,50 C 78,46 82,38 89,35 C 102,29 115,38 115,53 C 115,72 80,105 75,110 Z" fill="#EC7063" stroke="#C0392B" stroke-width="3" />
  <!-- Cute face -->
  <circle cx="63" cy="53" r="2.5" fill="#FFFFFF" />
  <circle cx="87" cy="53" r="2.5" fill="#FFFFFF" />
  <path d="M 72,58 Q 75,61 78,58" fill="none" stroke="#FFFFFF" stroke-width="2" stroke-linecap="round" />
  <!-- Little heart icon floating next to it -->
  <path d="M 108,35 C 106,32 103,32 101,34 C 99,36 99,39 102,42 L 108,47 L 114,42 C 117,39 117,36 115,34 C 113,32 110,32 108,35 Z" fill="#E74C3C" />
  <!-- ECG Line across heart -->
  <path d="M 45,70 L 60,70 L 65,55 L 70,85 L 75,65 L 80,75 L 85,70 L 105,70" fill="none" stroke="#FFFFFF" stroke-width="2.5" stroke-linecap="round" stroke-linejoin="round" />
</svg>
