<svg xmlns="http://www.w3.org/2000/svg" viewBox="0 0 150 150" width="150" height="150">
  <circle cx="75" cy="75" r="65" fill="#FDEDEC" />
  <g stroke="#C0392B">
    <path d="M 75,105 C 75,105 40,75 40,52 C 40,35 52,23 68,23 C 75,23 75,28 75,28 C 75,28 75,23 82,23 C 98,23 110,35 110,52 C 110,75 75,105 75,105 Z" fill="none" stroke-width="6" stroke-linecap="round" stroke-linejoin="round" />
  </g>
  
          <!-- Sad/Sick Face -->
          <path d="M 62,65 Q 65,69 68,65 M 82,65 Q 85,69 88,65" fill="none" stroke="#2C3E50" stroke-width="2.5" stroke-linecap="round" />
          <path d="M 71,80 Q 75,76 79,80" fill="none" stroke="#2C3E50" stroke-width="2.5" stroke-linecap="round" />
        
  <!-- Slapped cheeks and red seeds --><circle cx="58" cy="74" r="5" fill="#FF7675" opacity="0.6" /><circle cx="92" cy="74" r="5" fill="#FF7675" opacity="0.6" /><circle cx="71" cy="85" r="1.5" fill="#E74C3C" /><circle cx="79" cy="85" r="1.5" fill="#E74C3C" />
</svg>
