<svg xmlns="http://www.w3.org/2000/svg" viewBox="0 0 150 150" width="150" height="150">
  <circle cx="75" cy="75" r="65" fill="#FDEDEC" />
  <!-- Germ 1 (Green) -->
  <circle cx="55" cy="65" r="18" fill="#A9DFBF" stroke="#27AE60" stroke-width="2" />
  <!-- Spikes -->
  <line x1="55" y1="47" x2="55" y2="43" stroke="#27AE60" stroke-width="2" stroke-linecap="round" />
  <line x1="55" y1="83" x2="55" y2="87" stroke="#27AE60" stroke-width="2" stroke-linecap="round" />
  <line x1="37" y1="65" x2="33" y2="65" stroke="#27AE60" stroke-width="2" stroke-linecap="round" />
  <line x1="73" y1="65" x2="77" y2="65" stroke="#27AE60" stroke-width="2" stroke-linecap="round" />
  <!-- Face 1 -->
  <circle cx="50" cy="63" r="1.5" fill="#2C3E50" />
  <circle cx="60" cy="63" r="1.5" fill="#2C3E50" />
  <path d="M 53,68 Q 55,70 57,68" fill="none" stroke="#2C3E50" stroke-width="1.5" stroke-linecap="round" />

  <!-- Germ 2 (Orange/Blob) -->
  <path d="M 90,85 C 80,85 78,98 88,105 C 98,110 110,95 105,88 C 102,82 95,82 90,85 Z" fill="#FAD7A0" stroke="#E67E22" stroke-width="2" />
  <!-- Face 2 -->
  <circle cx="91" cy="93" r="1.2" fill="#2C3E50" />
  <circle cx="98" cy="93" r="1.2" fill="#2C3E50" />
  <path d="M 93,97 Q 95,99 97,97" fill="none" stroke="#2C3E50" stroke-width="1" stroke-linecap="round" />

  <!-- Germ 3 (Blue/Spiky) -->
  <path d="M 95,50 C 90,45 80,50 82,60 C 84,70 95,68 95,50 Z" fill="#AED6F1" stroke="#2980B9" stroke-width="2" />
  <!-- Face 3 -->
  <circle cx="86" cy="54" r="1" fill="#2C3E50" />
  <circle cx="92" cy="54" r="1" fill="#2C3E50" />
</svg>
