<svg xmlns="http://www.w3.org/2000/svg" viewBox="0 0 150 150" width="150" height="150">
  <circle cx="75" cy="75" r="65" fill="#FDEDEC" />
  <!-- Open mouth border -->
  <ellipse cx="75" cy="75" rx="35" ry="40" fill="#7B241C" stroke="#C0392B" stroke-width="3" />
  <!-- Tongue -->
  <path d="M 50,95 C 50,80 100,80 100,95 C 100,105 50,105 50,95 Z" fill="#EC7063" />
  <path d="M 75,85 L 75,102" fill="none" stroke="#C0392B" stroke-width="2" />
  <!-- Tonsils (little smiling balls on the sides) -->
  <circle cx="48" cy="70" r="8" fill="#E74C3C" stroke="#FFFFFF" stroke-width="1.5" />
  <circle cx="102" cy="70" r="8" fill="#E74C3C" stroke="#FFFFFF" stroke-width="1.5" />
  <!-- Cute faces on tonsils -->
  <circle cx="46" cy="68" r="0.8" fill="#FFFFFF" />
  <circle cx="50" cy="68" r="0.8" fill="#FFFFFF" />
  <path d="M 47,72 Q 48,73 49,72" fill="none" stroke="#FFFFFF" stroke-width="0.8" />

  <circle cx="100" cy="68" r="0.8" fill="#FFFFFF" />
  <circle cx="104" cy="68" r="0.8" fill="#FFFFFF" />
  <path d="M 101,72 Q 102,73 103,72" fill="none" stroke="#FFFFFF" stroke-width="0.8" />
  
  <!-- Uvula -->
  <path d="M 72,40 C 72,55 78,55 78,40 Z" fill="#E74C3C" />
</svg>
